<svg xmlns="http://www.w3.org/2000/svg" viewBox="0 0 2500 1686" width="2500" height="1686">
<defs>
<linearGradient id="bigGrad" x1="0%" y1="0%" x2="100%" y2="100%">
<stop offset="0%" stop-color="#06C755"/>
<stop offset="100%" stop-color="#04A648"/>
</linearGradient>
<linearGradient id="dangerGrad" x1="0%" y1="0%" x2="100%" y2="100%">
<stop offset="0%" stop-color="#FEE2E2"/>
<stop offset="100%" stop-color="#FECACA"/>
</linearGradient>
<symbol id="crown" viewBox="-30 -22 60 40">
<path d="M -25 10 L -20 -15 L -10 0 L 0 -18 L 10 0 L 20 -15 L 25 10 Z" fill="#FFB800" stroke="#92400E" stroke-width="2" stroke-linejoin="round"/>
<rect x="-25" y="10" width="50" height="6" rx="2" fill="#92400E"/>
<circle cx="-20" cy="-15" r="3" fill="#fff"/>
<circle cx="0" cy="-18" r="3" fill="#fff"/>
<circle cx="20" cy="-15" r="3" fill="#fff"/>
</symbol>
<symbol id="star" viewBox="-15 -15 30 30">
<polygon points="0,-13 4,-4 13,-4 6,2 8,11 0,6 -8,11 -6,2 -13,-4 -4,-4" fill="#FFB800" stroke="#92400E" stroke-width="1.5" stroke-linejoin="round"/>
</symbol>
<style>.label-big{font-family:"Sarabun","Noto Sans Thai","Tahoma",sans-serif;font-weight:800}.label-sm{font-family:"Sarabun","Noto Sans Thai","Tahoma",sans-serif;font-weight:700}.sub{font-family:"Sarabun","Noto Sans Thai","Tahoma",sans-serif;font-weight:500}</style>
</defs>
<g>
<rect x="0" y="0" width="1000" height="1686" fill="url(#bigGrad)"/>
<g transform="translate(500 580)" stroke="white" stroke-width="14" fill="none" stroke-linecap="round" stroke-linejoin="round">
<path d="M -260 -160 L -90 -210 L 90 -160 L 260 -210 L 260 160 L 90 210 L -90 160 L -260 210 Z" fill="rgba(255,255,255,0.16)"/>
<line x1="-90" y1="-210" x2="-90" y2="160"/>
<line x1="90" y1="-160" x2="90" y2="210"/>
</g>
<g transform="translate(500 580)">
<circle cx="0" cy="0" r="56" fill="#ef4444" stroke="white" stroke-width="10"/>
<circle cx="0" cy="0" r="20" fill="white"/>
</g>
<text x="500" y="950" text-anchor="middle" class="label-big" font-size="160" fill="white">แผนที่</text>
<text x="500" y="1040" text-anchor="middle" class="sub" font-size="60" fill="rgba(255,255,255,0.92)">เปิดดูทริปแบบ realtime</text>
<g transform="translate(870 130)">
<rect x="-130" y="-36" width="260" height="72" rx="36" fill="rgba(255,255,255,0.22)"/>
<use href="#star" x="-92" y="-22" width="44" height="44"/>
<text x="20" y="22" text-anchor="middle" class="label-sm" font-size="44" fill="white">หลัก</text>
</g>
</g>
<g>
<rect x="1000" y="0" width="500" height="843" fill="#ECFDF5"/>
<line x1="1500" y1="0" x2="1500" y2="843" stroke="#D1FAE5" stroke-width="2"/>
<g transform="translate(1250 320)" fill="#10B981">
<path d="M 0 -130 C -75 -130 -130 -80 -130 -10 C -130 80 0 200 0 200 C 0 200 130 80 130 -10 C 130 -80 75 -130 0 -130 Z"/>
<circle cx="0" cy="-15" r="42" fill="white"/>
</g>
<text x="1250" y="640" text-anchor="middle" class="label-sm" font-size="60" fill="#065F46">ส่งตำแหน่ง</text>
<text x="1250" y="710" text-anchor="middle" class="sub" font-size="36" fill="#047857">แชร์พิกัดของฉัน</text>
</g>
<g>
<rect x="1500" y="0" width="500" height="843" fill="#DCFCE7"/>
<line x1="2000" y1="0" x2="2000" y2="843" stroke="#BBF7D0" stroke-width="2"/>
<g transform="translate(1750 320)">
<rect x="-150" y="0" width="80" height="120" rx="14" fill="#22C55E"/>
<rect x="-40" y="-90" width="80" height="210" rx="14" fill="#16A34A"/>
<rect x="70" y="-30" width="80" height="150" rx="14" fill="#15803D"/>
</g>
<text x="1750" y="640" text-anchor="middle" class="label-sm" font-size="60" fill="#065F46">สถานะ</text>
<text x="1750" y="710" text-anchor="middle" class="sub" font-size="36" fill="#047857">ดูทุกคนในทริป</text>
</g>
<g>
<rect x="2000" y="0" width="500" height="843" fill="#F0FDF4"/>
<g transform="translate(2250 320)" fill="#10B981">
<rect x="-180" y="-50" width="360" height="100" rx="18"/>
<rect x="-160" y="-50" width="6" height="40" fill="white"/>
<rect x="-100" y="-50" width="6" height="60" fill="white"/>
<rect x="-40" y="-50" width="6" height="40" fill="white"/>
<rect x="20" y="-50" width="6" height="60" fill="white"/>
<rect x="80" y="-50" width="6" height="40" fill="white"/>
<rect x="140" y="-50" width="6" height="60" fill="white"/>
</g>
<text x="2250" y="640" text-anchor="middle" class="label-sm" font-size="60" fill="#065F46">ระยะของฉัน</text>
<text x="2250" y="710" text-anchor="middle" class="sub" font-size="36" fill="#047857">เหลืออีกกี่ km</text>
</g>
<line x1="1000" y1="843" x2="2500" y2="843" stroke="#E5E7EB" stroke-width="2"/>
<g>
<rect x="1000" y="843" width="500" height="843" fill="#FEF9C3"/>
<line x1="1500" y1="843" x2="1500" y2="1686" stroke="#FEF08A" stroke-width="2"/>
<g transform="translate(1250 1163)" fill="none" stroke-width="14">
<circle cx="0" cy="0" r="120" stroke="#CA8A04"/>
<circle cx="0" cy="0" r="75" stroke="#A16207"/>
<circle cx="0" cy="0" r="30" fill="#A16207"/>
</g>
<text x="1250" y="1480" text-anchor="middle" class="label-sm" font-size="58" fill="#713F12">ตั้งปลายทาง</text>
<text x="1250" y="1550" text-anchor="middle" class="sub" font-size="36" fill="#92400E">เลือกบนแผนที่</text>
<use href="#crown" x="1390" y="900" width="80" height="55"/>
</g>
<g>
<rect x="1500" y="843" width="500" height="843" fill="#FFEDD5"/>
<line x1="2000" y1="843" x2="2000" y2="1686" stroke="#FED7AA" stroke-width="2"/>
<g transform="translate(1750 1163)" fill="#EA580C">
<path d="M 0 -130 C -70 -130 -120 -80 -120 -10 L -120 30 L -150 70 L -150 90 L 150 90 L 150 70 L 120 30 L 120 -10 C 120 -80 70 -130 0 -130 Z"/>
<circle cx="0" cy="-150" r="20"/>
<ellipse cx="0" cy="120" rx="35" ry="20"/>
</g>
<text x="1750" y="1480" text-anchor="middle" class="label-sm" font-size="58" fill="#7C2D12">แจ้งเตือน</text>
<text x="1750" y="1550" text-anchor="middle" class="sub" font-size="36" fill="#9A3412">เปิด/ปิด push</text>
<use href="#crown" x="1890" y="900" width="80" height="55"/>
</g>
<g>
<rect x="2000" y="843" width="500" height="843" fill="url(#dangerGrad)"/>
<g transform="translate(2250 1163)" fill="#DC2626">
<rect x="-110" y="-100" width="220" height="200" rx="14"/>
<rect x="-140" y="-130" width="280" height="40" rx="14"/>
<rect x="-30" y="-160" width="60" height="40" rx="10"/>
<line x1="-50" y1="-50" x2="-50" y2="60" stroke="white" stroke-width="14" stroke-linecap="round"/>
<line x1="0" y1="-50" x2="0" y2="60" stroke="white" stroke-width="14" stroke-linecap="round"/>
<line x1="50" y1="-50" x2="50" y2="60" stroke="white" stroke-width="14" stroke-linecap="round"/>
</g>
<text x="2250" y="1480" text-anchor="middle" class="label-sm" font-size="58" fill="#991B1B">ยกเลิกทริป</text>
<text x="2250" y="1550" text-anchor="middle" class="sub" font-size="36" fill="#B91C1C">เฉพาะหัวหน้า</text>
<use href="#crown" x="2390" y="900" width="80" height="55"/>
</g>
</svg>
